<svg height="165" viewBox="0 0 815 165" width="815" xmlns="http://www.w3.org/2000/svg" xmlns:xlink="http://www.w3.org/1999/xlink"><defs><path id="a" d="m80.5 8h472v149h-472c-41.1452139 0-74.5-33.354786-74.5-74.5 0-41.1452139 33.3547861-74.5 74.5-74.5z"/><filter id="b" height="120.1%" width="105.5%" x="-2.7%" y="-10.1%"><feOffset dx="0" dy="0" in="SourceAlpha" result="shadowOffsetOuter1"/><feGaussianBlur in="shadowOffsetOuter1" result="shadowBlurOuter1" stdDeviation="5"/><feColorMatrix in="shadowBlurOuter1" type="matrix" values="0 0 0 0 0   0 0 0 0 0   0 0 0 0 0  0 0 0 0.667006341 0"/></filter><path id="c" d="m552 8h182c41.145214 0 74.5 33.3547861 74.5 74.5 0 41.145214-33.354786 74.5-74.5 74.5h-182z"/><filter id="d" height="120.1%" width="111.7%" x="-5.8%" y="-10.1%"><feOffset dx="0" dy="0" in="SourceAlpha" result="shadowOffsetOuter1"/><feGaussianBlur in="shadowOffsetOuter1" result="shadowBlurOuter1" stdDeviation="5"/><feColorMatrix in="shadowBlurOuter1" type="matrix" values="0 0 0 0 0   0 0 0 0 0   0 0 0 0 0  0 0 0 0.667006341 0"/></filter></defs><g fill="none" fill-rule="evenodd"><use fill="#000" filter="url(#b)" xlink:href="#a"/><use fill="#fff" fill-rule="evenodd" xlink:href="#a"/><use fill="#000" filter="url(#d)" xlink:href="#c"/><use fill="#335e5b" fill-rule="evenodd" xlink:href="#c"/><g fill-rule="nonzero"><path d="m169.687 96.126h-95.437v-46.819s94.874.023 97.125 0c1.509-.015 18.5 5.819 18.5 23.819 0 16.375-15.063 23-20.188 23zm2.688-52.126c-.875 0-104.25.126-104.25.126v53h-30.125v5.18h30.125v23.57h6.25v-23.625s97.125.125 97.625 0 23.125-5.125 23.125-28.375c0-22.375-20.5-29.876-22.75-29.876z" fill="#335e5b"/><path d="m220.022 95.8055556v-46.375s98.873.022 101.124 0c1.509-.016 18.5 5.375 18.5 23.375 0 16.375-15.062 23-20.187 23zm-.23 6.0540004h99.333s8.198.747 12.573 5.247 5.636 7.824 6.011 18.449h5.916s.338-12.695-5.125-19.875c-4.375-5.7500004-8.125-6.8750004-8.875-7.2500004v-1s15.375-4.75 15.375-25.375-17.04-26.036-18.5-26.625c-3.082-1.244-5-1.25-6.25-1.375s-106.25 0-106.25 0v81.5000004h5.792z" fill="#335e5b"/><path d="m444.999 84.833v-35.5h39.497c2.837 0 26.67 7.389 26.67 35.5zm39.497 35.473h-39.497v-30.14h66.167c0 18.125-18.666 30.14-26.67 30.14zm-44.996-35.473h-69.667c0-27.334 22.833-35.5 25.671-35.5h43.996zm0 35.473h-42.666c-8.671 0-27.022-16.384-27.022-30.219l69.688.079zm77.687-35.473c0-29.397-24.587-40.764-33.587-40.764h-38.601v-10.069h-5.499v10.069h-42.5c-10.135 0-32.875 11.181-33.501 40.764h-9.499v5.333h9.5c1.749 22.083 24.75 35.503 33 35.503h43v10.068h5.499v-10.068h38.101c13.15 0 32.775-14.669 34-34.055l.087-1.448h8.313v-5.333z" fill="#335e5b"/><path d="m666.170623 113.11937h48.829377c-.469609 1.519856-1.41882 1.600325-2.987515 1.48968-.479601 1.076272-1.109077 2.082133-1.738553 2.986402-.46961-.049287-1.258953-.020117-1.568695-.572335-.319734.763449-.94921.925392-1.578687 1.377024-1.418819.080469-2.517905.221289-3.776858.372169-19.214015 6.286631-40.955927 4.809021-61.269028 8.17765-10.561213 1.257327-20.632834 3.792097-30.874314 5.855118-7.87345.020117-17.005852 6.75838-24.09995.603516-1.41882-2.404008-1.41882-5.623769-.309743-8.147475.629477-1.26839 1.408828-2.373832 2.048296-3.551695 23.780216-25.0147597 45.991738-52.9877567 73.23907-73.4479772-10.711089-.9656267-21.262311 1.9322591-31.663658 3.5516955-8.033317 1.7693096-16.066634 3.0668705-23.940083 5.1590615-1.258953 0-2.358039.1619437-3.467116-.4828133-.789343-.9646208-1.888429-1.9302474-1.728562-3.2278082v-3.3907578c.309742-.803683.629476-1.6093777 1.099086-2.252123 10.241479-4.3553785 21.741912-3.7116274 31.9734-7.4242607 1.109077 0 2.048296-.6427453 3.157373-.4828134 12.119917-.9656266 24.089959-2.9059327 36.219867-3.7116274 1.099086.1619436 2.208163.3228814 3.307249.8056947 1.41882 1.6093778 2.677772 3.3887461 2.997506 5.4809371.309743 1.9423178-.94921 3.3897519-1.888429 4.8492564-1.89842 2.0921911-4.096592 3.8715593-5.98502 5.9637504-22.531256 17.039287-43.323958 37.9712564-62.218239 59.7290374-2.048296 3.197633-4.416326 6.325861-6.144888 9.766912.319734.291699.629477.511983.949211.5321 5.03581-1.760257 10.391355-2.595122 15.587032-3.681452 15.127415-2.856645 30.084971-5.803818 45.831871-6.326866" fill="#fffffe"/><path d="m690 89.845h4.902v-5.845h-4.902z" fill="#fff"/><path d="m710.684 89.953c-1.572 0-3.014-.243-4.327-.729-1.312-.485-2.44-1.219-3.384-2.204-.943-.984-1.675-2.225-2.194-3.722-.52-1.497-.779-3.257-.779-5.281 0-2.009.27-3.746.81-5.209s1.261-2.693 2.163-3.691c.903-.998 2.027-1.767 3.374-2.308 1.346-.54 2.792-.809 4.337-.809 1.258 0 2.471.177 3.64.533 1.169.355 2.212.766 3.128 1.23v4.328h-.226c-.273-.233-.625-.499-1.056-.8s-.954-.609-1.569-.923c-.533-.274-1.162-.513-1.887-.718-.724-.205-1.422-.307-2.091-.307-1.997 0-3.599.755-4.81 2.265-1.209 1.511-1.814 3.648-1.814 6.409 0 2.707.584 4.816 1.753 6.326 1.169 1.511 2.793 2.267 4.871 2.267 1.257 0 2.454-.26 3.588-.779 1.135-.52 2.14-1.19 3.015-2.01h.226v4.327c-.383.178-.862.393-1.436.646s-1.094.441-1.558.564c-.657.192-1.245.338-1.764.441-.52.102-1.19.154-2.01.154" fill="#fff"/><path d="m736.489 78.1c0-2.967-.54-5.172-1.62-6.614-1.081-1.443-2.619-2.164-4.615-2.164-2.009 0-3.558.721-4.645 2.164-1.087 1.442-1.63 3.647-1.63 6.614 0 2.871.543 5.048 1.63 6.531 1.087 1.484 2.636 2.226 4.645 2.226 1.983 0 3.517-.729 4.604-2.185s1.631-3.646 1.631-6.572zm3.978 0c0 3.855-.929 6.832-2.789 8.93-1.859 2.1-4.334 3.149-7.424 3.149-3.185 0-5.691-1.084-7.516-3.251s-2.738-5.109-2.738-8.828c0-3.828.94-6.802 2.82-8.921s4.358-3.179 7.434-3.179c3.09 0 5.565 1.056 7.424 3.168 1.86 2.112 2.789 5.09 2.789 8.932z" fill="#fff"/><path d="m770.004 89.543v-13.248c0-1.053-.041-2.027-.123-2.923-.082-.895-.253-1.595-.513-2.101-.273-.547-.663-.95-1.169-1.21-.505-.26-1.189-.39-2.05-.39-.793 0-1.644.243-2.554.728-.909.485-1.849 1.186-2.819 2.102.013.233.03.509.051.83.02.322.031.702.031 1.139v15.073h-3.856v-13.248c0-1.053-.041-2.027-.123-2.923-.082-.895-.253-1.595-.513-2.101-.273-.547-.663-.95-1.169-1.21-.505-.26-1.189-.39-2.05-.39-.834 0-1.709.26-2.625.779-.916.52-1.805 1.183-2.666 1.99v17.103h-3.856v-22.907h3.856v2.543c1.011-1.012 2.013-1.795 3.004-2.349.991-.553 2.082-.83 3.271-.83 1.354 0 2.553.308 3.599.923s1.842 1.627 2.389 3.035c1.163-1.299 2.297-2.283 3.405-2.953 1.107-.67 2.31-1.005 3.609-1.005.984 0 1.88.154 2.687.461.806.308 1.51.804 2.112 1.487.615.698 1.09 1.566 1.425 2.605s.503 2.345.503 3.917v15.073z" fill="#fff"/></g></g></svg>